<?xml version="1.0" encoding="iso-8859-1"?>
<!-- Generator: Adobe Illustrator 19.0.0, SVG Export Plug-In . SVG Version: 6.00 Build 0)  -->
<svg version="1.1" id="Capa_1" xmlns="http://www.w3.org/2000/svg" xmlns:xlink="http://www.w3.org/1999/xlink" x="0px" y="0px"
	 viewBox="0 0 512 512" style="enable-background:new 0 0 512 512;" xml:space="preserve">
<linearGradient id="SVGID_1_" gradientUnits="userSpaceOnUse" x1="256.0155" y1="513.9799" x2="256.0155" y2="1.9799" gradientTransform="matrix(0.9999 0 0 -0.9999 -0.0025 513.9669)">
	<stop  offset="0" style="stop-color:#2AF598"/>
	<stop  offset="1" style="stop-color:#009EFD"/>
</linearGradient>
<path style="fill:url(#SVGID_1_);" d="M404.005,106.008V0.013H258.013v39.998h77.712l-119.36,119.36
	c-22.532-16.563-50.327-26.364-80.372-26.364C61.006,133.007,0,194.013,0,269c0,66.316,47.717,121.687,110.616,133.608
	c12.408,62.287,67.491,109.378,133.371,109.378c74.987,0,135.993-61.007,135.993-135.993c0-30.492-10.089-58.672-27.102-81.38
	l119.123-119.123V252H512V106.008H404.005z M444.921,146.006L324.477,266.45c-16.055-11.828-34.79-20.214-55.112-24.065
	c-4.038-20.269-12.59-38.929-24.568-54.88L364.008,68.294v77.712h2H444.921L444.921,146.006z M39.998,268.999
	c0-52.932,43.063-95.995,95.995-95.995c43.184,0,79.794,28.664,91.816,67.964c-62.499,7.443-112.119,57.434-118.992,120.103
	C69.079,349.321,39.998,312.495,39.998,268.999z M231.257,280.845c-5.338,43.186-39.47,77.573-82.534,83.304
	C154.061,320.964,188.193,286.576,231.257,280.845z M243.988,471.989c-43.184,0-79.794-28.664-91.816-67.964
	c62.499-7.443,112.119-57.434,118.992-120.103c39.738,11.749,68.819,48.576,68.819,92.071
	C339.983,428.926,296.92,471.989,243.988,471.989z"/>
<g>
</g>
<g>
</g>
<g>
</g>
<g>
</g>
<g>
</g>
<g>
</g>
<g>
</g>
<g>
</g>
<g>
</g>
<g>
</g>
<g>
</g>
<g>
</g>
<g>
</g>
<g>
</g>
<g>
</g>
</svg>
