<?xml version="1.0" encoding="utf-8"?>
<!-- Generator: Adobe Illustrator 19.2.0, SVG Export Plug-In . SVG Version: 6.00 Build 0)  -->
<svg version="1.1" id="Layer_1" xmlns="http://www.w3.org/2000/svg" xmlns:xlink="http://www.w3.org/1999/xlink" x="0px" y="0px"
	 viewBox="0 0 632 165" style="enable-background:new 0 0 632 165;" xml:space="preserve">
<style type="text/css">
	.st0{fill:#4497F8;}
	.st1{fill:#FFFFFF;}
	.st2{fill:#212529;}
	.st3{fill:#9B9B9B;}
</style>
<title>WebLogo</title>
<path class="st0" d="M8.5,0.5h148c4.4,0,8,3.6,8,8v148c0,4.4-3.6,8-8,8H8.5c-4.4,0-8-3.6-8-8V8.5C0.5,4.1,4.1,0.5,8.5,0.5z"/>
<polygon class="st1" points="81,52 102.5,52 115.1,72.9 127.7,52 149,52 124.7,88 124.7,114 105.4,114 105.4,88 "/>
<polygon class="st1" points="16,52 37.4,52 50,72.9 62.7,52 84,52 59.7,88 59.7,114 40.3,114 40.3,88 "/>
<path class="st2" d="M242,65.8h-19.8V114h-15.3V65.8H187V52h55V65.8z M279,69v14.1c-7.2,0.3-11.7,2.2-15.2,5.6V114H249V69.7h14.8
	v4.8C268,70.8,273.4,68.8,279,69z M332,70v44.6h-14.8v-2.9c-3.4,2.8-7.7,4.3-12.2,4.3c-11.3,0-19-7.8-19-20.5V70h14.8v23.2
	c0,6.3,3.3,9.4,8.2,9.4c2.8,0,5.6-1.6,8.2-4.4V70H332z M393,70l-27,65h-15.5l8.3-20L338,70h15.5l12.7,27.4L377.6,70H393z M444,91.5
	c0,1.8,0,3.6-0.3,5.4h-31.4c1.2,4.1,4.3,7.2,9.9,7.2c3.1,0,5.5-1.2,6.7-3.2h14.6c-2.2,9.3-10.6,15.1-21.6,15.1
	c-14.4,0-24.1-9.8-24.1-23.6S407.4,69,421.5,69C434.3,69,444,78,444,91.5z M421.2,80c-5,0-8.1,2.8-9.2,7h18
	C429.2,82.4,426,80,421.2,80z M479.1,69c11.2,0,18.9,7.8,18.9,20.5V115h-14.8V91.9c0-6.3-3.2-9.4-8.2-9.4c-2.7,0-5.5,1.5-8.1,4.4v28
	H452V70.4h14.9v2.9C470.4,70.5,474.7,69,479.1,69L479.1,69z M566,52l-24.3,43.3V114h-15.4V95.3L502,52h16.9l15,27L549,52H566z
	 M632,52l-24.3,43.3V114h-15.4V95.3L568,52h16.9l15,27L615,52H632z"/>
<path class="st3" d="M211.3,148c-2.3,0-4.2-1.9-4.2-4.2c0-2.3,1.9-4.2,4.2-4.2c2.3-0.1,4.3,1.7,4.4,4c0.1,2.3-1.7,4.3-4,4.4
	C211.6,148,211.5,148,211.3,148z M231.4,141.1c2.2,0.1,4.1-1.4,4.6-3.5h7.4c-0.6,6-5.5,10.1-12,10.1c-7.3,0-12.8-5.1-12.8-12.3
	s5.4-12.2,12.8-12.2c6.5,0,11.4,4.1,12,10.1H236c-0.4-2.2-2.4-3.7-4.6-3.5c-3.4,0-5.4,2.4-5.4,5.6S228.1,141.1,231.4,141.1
	L231.4,141.1z M259.3,123.2c7.4,0,12.6,5.2,12.6,12.2s-5.2,12.4-12.6,12.4s-12.7-5.3-12.7-12.4S251.9,123.2,259.3,123.2L259.3,123.2
	z M259.3,141.1c3.1,0,5.2-2.5,5.2-5.6c0.1-2.9-2.1-5.4-5-5.5c-2.9-0.1-5.4,2.1-5.5,5c0,0.2,0,0.3,0,0.5
	C254,138.6,256.1,141.1,259.3,141.1L259.3,141.1z M305.3,123c5.6,0,9.7,4.1,9.7,10.8v13.4h-7.8V135c0-3.3-1.6-4.9-4.2-4.9
	c-1.4,0-2.7,0.8-3.6,1.9c0,0.6,0.1,1.2,0.1,1.7v13.4h-7.8V135c0-3.3-1.6-4.9-4.2-4.9c-1.4,0.1-2.7,0.8-3.5,2v15h-7.8v-23.4h7.9v1.3
	c1.6-1.4,3.6-2.2,5.7-2.1c2.8-0.1,5.4,1.1,7.2,3.2C299.2,124,302.2,122.9,305.3,123L305.3,123z"/>
</svg>
